<?xml version="1.0" encoding="UTF-8"?>
<svg viewBox="0 0 120 120" version="1.1"
    xmlns="http://www.w3.org/2000/svg"
    xmlns:xlink="http://www.w3.org/1999/xlink">
    <g id="sun">
        <circle id="Oval" cx="60" cy="60" r="32"></circle>
        <line x1="60.5" y1="16.5" x2="60.5" y2="5.5" id="Line" stroke-width="8" stroke-linecap="round" stroke-linejoin="round"></line>
        <line x1="60.5" y1="114.5" x2="60.5" y2="103.5" id="Line-Copy" stroke-width="8" stroke-linecap="round" stroke-linejoin="round"></line>
        <line x1="109" y1="66" x2="109" y2="55" id="Line-Copy-2" stroke-width="8" stroke-linecap="round" stroke-linejoin="round" transform="translate(109.000000, 60.500000) rotate(90.000000) translate(-109.000000, -60.500000) "></line>
        <line x1="11" y1="66" x2="11" y2="55" id="Line-Copy-3" stroke-width="8" stroke-linecap="round" stroke-linejoin="round" transform="translate(11.000000, 60.500000) rotate(90.000000) translate(-11.000000, -60.500000) "></line>
        <line x1="97" y1="32" x2="97" y2="21" id="Line-Copy-4" stroke-width="8" stroke-linecap="round" stroke-linejoin="round" transform="translate(97.000000, 26.500000) rotate(45.000000) translate(-97.000000, -26.500000) "></line>
        <line x1="24" y1="31" x2="24" y2="20" id="Line-Copy-6" stroke-width="8" stroke-linecap="round" stroke-linejoin="round" transform="translate(24.000000, 25.500000) rotate(135.000000) translate(-24.000000, -25.500000) "></line>
        <line x1="95" y1="102" x2="95" y2="91" id="Line-Copy-7" stroke-width="8" stroke-linecap="round" stroke-linejoin="round" transform="translate(95.000000, 96.500000) rotate(135.000000) translate(-95.000000, -96.500000) "></line>
        <line x1="24" y1="101" x2="24" y2="90" id="Line-Copy-5" stroke-width="8" stroke-linecap="round" stroke-linejoin="round" transform="translate(24.000000, 95.500000) rotate(45.000000) translate(-24.000000, -95.500000) "></line>
    </g>
</svg>